<svg viewBox="0 0 1500 370" xmlns="http://www.w3.org/2000/svg" fill-rule="evenodd" clip-rule="evenodd" stroke-linejoin="round" stroke-miterlimit="1.414">
  <path d="M0 16.574h38.149l91.18 109.037V16.574h45.996v189.394h-38.15L45.996 96.931v109.037H0V16.574zM253.788 205.968h-43.29V70.687h43.29v135.281zM232.143 57.429c-7.396 0-13.483-2.435-18.263-7.305-4.78-4.87-7.17-10.913-7.17-18.128 0-7.395 2.39-13.483 7.17-18.263 4.78-4.78 10.867-7.17 18.263-7.17 7.215 0 13.257 2.39 18.128 7.17 4.87 4.78 7.305 10.868 7.305 18.263 0 7.215-2.435 13.258-7.305 18.128-4.871 4.87-10.913 7.305-18.128 7.305zM276.786 138.327c0-13.889 3.111-26.199 9.334-36.931 6.223-10.733 14.836-19.075 25.839-25.028 11.003-5.952 23.629-8.928 37.879-8.928 10.461 0 20.247 1.713 29.356 5.141 9.109 3.427 16.82 8.297 23.133 14.61l-23.269 35.173c-7.756-8.297-17.225-12.446-28.409-12.446-8.477 0-15.512 2.661-21.104 7.982-5.591 5.321-8.387 12.13-8.387 20.427 0 8.298 2.796 15.107 8.387 20.428 5.592 5.321 12.627 7.981 21.104 7.981 11.184 0 20.653-4.148 28.409-12.445l23.269 35.173c-6.313 6.313-14.024 11.183-23.133 14.61-9.109 3.427-18.895 5.141-29.356 5.141-14.25 0-26.876-2.976-37.879-8.929-11.003-5.952-19.616-14.295-25.839-25.027-6.223-10.732-9.334-23.043-9.334-36.932zM407.738 138.327c0-14.069 3.202-26.47 9.605-37.202 6.403-10.732 15.197-19.03 26.38-24.892 11.183-5.862 23.809-8.793 37.879-8.793 14.069 0 26.695 2.931 37.879 8.793 11.183 5.862 19.976 14.16 26.379 24.892 6.404 10.732 9.605 23.133 9.605 37.202 0 14.07-3.201 26.47-9.605 37.203-6.403 10.732-15.196 19.029-26.379 24.892-11.184 5.862-23.81 8.793-37.879 8.793-14.07 0-26.696-2.931-37.879-8.793-11.183-5.863-19.977-14.16-26.38-24.892-6.403-10.733-9.605-23.133-9.605-37.203zm103.355 0c0-8.658-2.886-15.557-8.658-20.698-5.772-5.14-12.716-7.711-20.833-7.711-8.117 0-15.062 2.571-20.834 7.711-5.772 5.141-8.658 12.04-8.658 20.698 0 8.658 2.886 15.558 8.658 20.698 5.772 5.141 12.717 7.711 20.834 7.711 8.117 0 15.061-2.57 20.833-7.711 5.772-5.14 8.658-12.04 8.658-20.698zM656.926 16.574h43.832l73.052 129.059 73.051-129.059h43.832v189.394h-45.996v-92.532l-52.489 92.532h-36.797l-52.489-92.532v92.532h-45.996V16.574zM917.478 96.39c5.051-9.199 13.123-16.279 24.216-21.239 11.093-4.96 24.395-7.441 39.908-7.441 21.104 0 36.751 4.735 46.942 14.205 10.192 9.47 15.287 24.035 15.287 43.696v80.628h-43.29v-17.858c-4.149 6.494-9.695 11.544-16.639 15.152-6.945 3.607-14.746 5.411-23.404 5.411s-16.459-1.804-23.404-5.411c-6.944-3.608-12.356-8.613-16.234-15.016-3.878-6.404-5.817-13.664-5.817-21.781 0-11.724 3.923-21.509 11.77-29.356 7.846-7.846 18.263-12.31 31.25-13.392l36.526-3.247c3.968-.541 5.952-1.984 5.952-4.329v-1.082c0-2.706-1.713-4.78-5.141-6.223-3.427-1.443-8.297-2.165-14.61-2.165-7.936 0-14.791 1.173-20.563 3.517-5.772 2.345-9.92 5.592-12.446 9.741l-30.303-23.81zm55.736 55.736c-4.329.541-7.666 1.804-10.011 3.788-2.344 1.984-3.517 4.509-3.517 7.576 0 3.607 1.353 6.403 4.059 8.387 2.705 1.984 6.493 2.976 11.363 2.976 7.396 0 13.483-2.209 18.263-6.628 4.78-4.42 7.17-10.056 7.17-16.911v-2.435l-27.327 3.247zM1113.91 94.226c7.395-17.858 19.751-26.786 37.067-26.786 4.329 0 8.658.721 12.987 2.164v46.808c-4.69-1.804-10.552-2.706-17.587-2.706-10.101 0-17.766 2.57-22.997 7.711-5.231 5.141-7.847 13.393-7.847 24.757v59.794h-43.29V70.687h41.667v23.539zM1268.13 202.721c-11.905 3.067-22.818 4.6-32.738 4.6-27.598 0-41.396-14.971-41.396-44.914v-56.006h-23.269V70.687h23.269V34.431h43.29v36.256h32.738v35.714h-32.738v47.078c0 3.607 1.037 6.133 3.111 7.576 2.074 1.443 5.186 2.164 9.334 2.164 2.345 0 8.478-.721 18.399-2.164v41.666zM1339.02 205.968h-43.29V70.687h43.29v135.281zm-21.645-148.539c-7.395 0-13.483-2.435-18.263-7.305-4.78-4.87-7.17-10.913-7.17-18.128 0-7.395 2.39-13.483 7.17-18.263 4.78-4.78 10.868-7.17 18.263-7.17 7.215 0 13.258 2.39 18.128 7.17 4.87 4.78 7.305 10.868 7.305 18.263 0 7.215-2.435 13.258-7.305 18.128-4.87 4.87-10.913 7.305-18.128 7.305zM1368.78 70.687h42.208v20.292c5.231-7.576 11.589-13.393 19.075-17.451 7.485-4.059 15.557-6.088 24.215-6.088 14.791 0 26.109 4.464 33.956 13.393 7.846 8.928 11.769 21.78 11.769 38.555v86.58h-43.831v-71.699c0-16.595-6.854-24.892-20.563-24.892-7.395 0-13.167 2.706-17.316 8.117-4.149 5.411-6.223 12.987-6.223 22.727v65.747h-43.29V70.687zM42.909 311.231l-10.171-29.995-10.379 29.995h20.55zm25.532 23.249v4.255h-28.23v-4.255l10.171-1.246-5.812-17.125H20.698l-5.812 17.021 10.068 1.35v4.255H1.082v-4.255l8.822-1.35 22.211-63.83h6.227l22.315 64.246 7.784.934zM114.627 329.083c3.806 3.528 7.646 5.293 11.521 5.293 1.937 0 3.753-.415 5.449-1.246 1.695-.83 3.183-2.075 4.463-3.736 1.28-1.661 2.283-3.736 3.009-6.227.727-2.491 1.09-5.397 1.09-8.719 0-6.711-1.211-11.849-3.632-15.412-2.422-3.564-5.536-5.345-9.341-5.345-1.592 0-3.425.398-5.501 1.193-2.076.796-4.428 2.301-7.058 4.515v29.684zm-.623-33.524c4.775-5.19 9.999-7.784 15.673-7.784 2.767 0 5.362.588 7.784 1.764 2.421 1.176 4.515 2.889 6.279 5.138 1.764 2.248 3.166 4.964 4.203 8.147 1.038 3.183 1.557 6.781 1.557 10.794 0 4.013-.536 7.663-1.609 10.95-1.072 3.286-2.56 6.089-4.462 8.407-1.903 2.318-4.169 4.117-6.799 5.397-2.629 1.28-5.466 1.92-8.51 1.92-2.422 0-4.775-.485-7.058-1.453-2.283-.969-4.532-2.733-6.746-5.293v8.095c0 2.699.017 5.449.052 8.251.034 2.803.086 5.588.155 8.355l9.445 1.557v3.633H97.294v-3.633l8.304-1.453a698.845 698.845 0 0 0 .207-16.71v-29.995c0-2.837-.034-5.189-.104-7.058-.069-1.868-.138-3.84-.207-5.915l-8.096-.935v-3.632l14.427-6.331 1.557 1.038.622 6.746zM187.798 311.854a103.027 103.027 0 0 0-5.241 1.557 104.175 104.175 0 0 0-4.203 1.453c-2.284.899-4.1 1.816-5.449 2.75-1.35.934-2.37 1.851-3.062 2.75-.692.9-1.142 1.799-1.349 2.699-.208.899-.312 1.73-.312 2.491 0 1.384.19 2.491.571 3.321.381.83.848 1.557 1.401 2.18 1.592 1.591 3.702 2.387 6.331 2.387.831 0 1.626-.087 2.387-.26.762-.173 1.557-.484 2.388-.934.83-.45 1.764-1.038 2.802-1.764a501.108 501.108 0 0 0 3.736-2.647v-15.983zm18.682 22.418c-1.176 2.214-2.456 3.685-3.84 4.411-1.384.727-2.906 1.09-4.567 1.09-2.906 0-5.189-.709-6.85-2.128-1.66-1.418-2.733-3.304-3.217-5.656a85.632 85.632 0 0 1-3.84 3.632c-1.177 1.038-2.353 1.903-3.529 2.595a15.13 15.13 0 0 1-3.633 1.557c-1.245.346-2.629.519-4.151.519-1.868 0-3.65-.277-5.345-.83-1.696-.554-3.183-1.384-4.463-2.491-1.28-1.107-2.284-2.474-3.01-4.1-.727-1.626-1.09-3.512-1.09-5.657 0-1.453.242-2.871.727-4.255.484-1.384 1.349-2.716 2.594-3.996 1.246-1.28 2.993-2.56 5.242-3.84 2.248-1.28 5.137-2.543 8.666-3.788a105.746 105.746 0 0 1 5.449-1.713c2.041-.588 4.1-1.159 6.175-1.712v-2.803c0-2.491-.19-4.549-.571-6.175-.38-1.626-.951-2.906-1.712-3.84-.761-.934-1.747-1.592-2.958-1.972-1.211-.381-2.681-.571-4.411-.571-.761 0-1.574.035-2.439.104a24.57 24.57 0 0 0-2.854.415l-2.076 7.265c-.969 3.321-2.837 4.982-5.605 4.982-1.453 0-2.594-.398-3.425-1.194-.83-.795-1.314-1.885-1.453-3.269.969-3.944 3.252-7.109 6.85-9.497 3.598-2.387 8.061-3.58 13.389-3.58 5.466 0 9.514 1.384 12.143 4.151 2.63 2.768 3.944 7.473 3.944 14.116v22.21c0 4.083 1.142 6.124 3.425 6.124.831 0 1.557-.19 2.18-.571a12.807 12.807 0 0 0 1.661-1.194l.518-.622 2.076 2.283zM233.881 309.985c5.258 1.938 8.943 4.169 11.053 6.695 2.11 2.525 3.166 5.414 3.166 8.666 0 1.938-.416 3.806-1.246 5.605-.83 1.799-2.093 3.39-3.788 4.774-1.695 1.384-3.806 2.491-6.331 3.321-2.526.831-5.449 1.246-8.77 1.246-2.976 0-5.657-.329-8.044-.986-2.387-.658-4.895-1.678-7.525-3.062l-.311-11.313h5.708l1.972 8.926c2.422 1.107 5.224 1.661 8.407 1.661 3.944 0 6.885-.727 8.822-2.18 1.938-1.453 2.906-3.39 2.906-5.812 0-2.214-.813-3.979-2.439-5.293-1.626-1.315-4.099-2.595-7.421-3.841l-4.774-1.764c-3.806-1.384-6.85-3.2-9.133-5.449-2.284-2.249-3.425-5.034-3.425-8.355 0-2.007.432-3.909 1.297-5.708.865-1.799 2.076-3.391 3.633-4.775 1.556-1.383 3.459-2.491 5.708-3.321 2.249-.83 4.757-1.245 7.525-1.245 2.837 0 5.397.363 7.68 1.089 2.283.727 4.567 1.782 6.85 3.166l-.415 10.586h-5.397l-1.557-8.303c-2.491-1.176-4.913-1.764-7.265-1.764-3.183 0-5.587.675-7.213 2.024-1.626 1.349-2.44 3.2-2.44 5.553 0 2.075.71 3.719 2.128 4.93 1.419 1.21 3.927 2.473 7.525 3.788l3.114 1.141zM279.029 309.985c5.258 1.938 8.943 4.169 11.053 6.695 2.111 2.525 3.166 5.414 3.166 8.666 0 1.938-.415 3.806-1.246 5.605-.83 1.799-2.093 3.39-3.788 4.774-1.695 1.384-3.806 2.491-6.331 3.321-2.526.831-5.449 1.246-8.77 1.246-2.976 0-5.657-.329-8.044-.986-2.387-.658-4.895-1.678-7.525-3.062l-.311-11.313h5.708l1.972 8.926c2.422 1.107 5.224 1.661 8.407 1.661 3.944 0 6.885-.727 8.822-2.18 1.938-1.453 2.906-3.39 2.906-5.812 0-2.214-.813-3.979-2.439-5.293-1.626-1.315-4.099-2.595-7.421-3.841l-4.774-1.764c-3.805-1.384-6.85-3.2-9.133-5.449-2.284-2.249-3.425-5.034-3.425-8.355 0-2.007.432-3.909 1.297-5.708.865-1.799 2.076-3.391 3.633-4.775 1.557-1.383 3.459-2.491 5.708-3.321 2.249-.83 4.757-1.245 7.525-1.245 2.837 0 5.397.363 7.68 1.089 2.283.727 4.567 1.782 6.85 3.166l-.415 10.586h-5.397l-1.557-8.303c-2.491-1.176-4.912-1.764-7.265-1.764-3.183 0-5.587.675-7.213 2.024-1.626 1.349-2.439 3.2-2.439 5.553 0 2.075.709 3.719 2.127 4.93 1.419 1.21 3.927 2.473 7.525 3.788l3.114 1.141zM313.279 276.669c-2.007 0-3.667-.622-4.982-1.868-1.315-1.245-1.972-2.871-1.972-4.878s.657-3.615 1.972-4.826c1.315-1.211 2.975-1.816 4.982-1.816s3.667.605 4.982 1.816c1.314 1.211 1.972 2.819 1.972 4.826 0 2.007-.658 3.633-1.972 4.878-1.315 1.246-2.975 1.868-4.982 1.868zm11.832 58.33v3.736h-24.079v-3.736l7.784-1.453c.069-2.63.121-5.484.156-8.563.034-3.079.052-5.76.052-8.044v-5.189c0-2.837-.035-5.207-.104-7.11-.069-1.902-.139-3.892-.208-5.967l-8.199-.935v-3.632l15.983-6.331 1.557 1.038-.311 14.115v14.011c0 2.284.017 4.965.052 8.044.034 3.079.086 5.933.155 8.563l7.162 1.453zM356.87 292.549c-4.566 0-8.061 1.851-10.482 5.553-2.422 3.701-3.633 9.081-3.633 16.139 0 6.988 1.211 12.299 3.633 15.931 2.421 3.633 5.916 5.449 10.482 5.449 4.498 0 7.957-1.816 10.379-5.449 2.422-3.632 3.633-8.943 3.633-15.931 0-7.058-1.211-12.438-3.633-16.139-2.422-3.702-5.881-5.553-10.379-5.553zm0-4.774c2.976 0 5.899.571 8.77 1.712 2.872 1.142 5.415 2.837 7.629 5.086 2.214 2.249 4.013 5.016 5.397 8.303 1.384 3.287 2.076 7.075 2.076 11.365s-.675 8.061-2.024 11.313c-1.349 3.252-3.148 5.968-5.397 8.147a22.634 22.634 0 0 1-7.681 4.93c-2.871 1.107-5.794 1.661-8.77 1.661-3.044 0-6.002-.554-8.874-1.661a22.097 22.097 0 0 1-7.628-4.93c-2.214-2.179-3.996-4.895-5.345-8.147-1.35-3.252-2.024-7.023-2.024-11.313 0-4.29.674-8.078 2.024-11.365 1.349-3.287 3.148-6.054 5.397-8.303 2.248-2.249 4.791-3.944 7.628-5.086a23.433 23.433 0 0 1 8.822-1.712zM445.194 334.999v3.736h-24.079v-3.736l7.681-1.453c.069-2.561.121-5.363.156-8.407.034-3.045.051-5.778.051-8.2v-9.133c0-4.705-.657-7.992-1.972-9.86-1.314-1.868-3.494-2.802-6.538-2.802-2.422 0-4.757.519-7.006 1.557-2.249 1.037-4.688 2.698-7.317 4.981v15.257c0 2.284.017 4.965.052 8.044.034 3.079.086 5.933.155 8.563l7.266 1.453v3.736h-24.079v-3.736l7.68-1.453c.069-2.63.121-5.467.156-8.511.034-3.045.052-5.743.052-8.096v-5.293c0-2.837-.035-5.189-.104-7.058-.069-1.868-.139-3.84-.208-5.915l-8.199-.935v-3.632l14.427-6.331 1.556 1.038.831 8.406c2.56-2.836 5.483-5.12 8.77-6.85 3.287-1.729 6.59-2.594 9.912-2.594 4.497 0 7.836 1.487 10.015 4.463 2.18 2.975 3.27 7.888 3.27 14.738v9.963a706.19 706.19 0 0 0 .207 16.607l7.265 1.453zM481.936 311.854a103.373 103.373 0 0 0-5.242 1.557 104.175 104.175 0 0 0-4.203 1.453c-2.283.899-4.1 1.816-5.449 2.75-1.349.934-2.37 1.851-3.062 2.75-.692.9-1.141 1.799-1.349 2.699-.208.899-.311 1.73-.311 2.491 0 1.384.19 2.491.57 3.321a8.74 8.74 0 0 0 1.402 2.18c1.591 1.591 3.701 2.387 6.331 2.387.83 0 1.626-.087 2.387-.26.761-.173 1.557-.484 2.387-.934.83-.45 1.764-1.038 2.802-1.764a498.93 498.93 0 0 0 3.737-2.647v-15.983zm18.682 22.418c-1.177 2.214-2.457 3.685-3.84 4.411-1.384.727-2.907 1.09-4.567 1.09-2.906 0-5.19-.709-6.85-2.128-1.661-1.418-2.733-3.304-3.218-5.656a85.632 85.632 0 0 1-3.84 3.632c-1.176 1.038-2.352 1.903-3.529 2.595a15.14 15.14 0 0 1-3.632 1.557c-1.246.346-2.63.519-4.152.519-1.868 0-3.65-.277-5.345-.83-1.695-.554-3.183-1.384-4.463-2.491-1.28-1.107-2.283-2.474-3.01-4.1-.726-1.626-1.09-3.512-1.09-5.657 0-1.453.243-2.871.727-4.255s1.349-2.716 2.595-3.996c1.245-1.28 2.992-2.56 5.241-3.84 2.249-1.28 5.138-2.543 8.666-3.788a106.058 106.058 0 0 1 5.449-1.713c2.041-.588 4.1-1.159 6.176-1.712v-2.803c0-2.491-.191-4.549-.571-6.175-.381-1.626-.952-2.906-1.713-3.84-.761-.934-1.747-1.592-2.958-1.972-1.21-.381-2.681-.571-4.411-.571-.761 0-1.574.035-2.439.104a24.57 24.57 0 0 0-2.854.415l-2.076 7.265c-.968 3.321-2.837 4.982-5.604 4.982-1.453 0-2.595-.398-3.425-1.194-.831-.795-1.315-1.885-1.453-3.269.968-3.944 3.252-7.109 6.85-9.497 3.598-2.387 8.061-3.58 13.389-3.58 5.466 0 9.513 1.384 12.143 4.151 2.629 2.768 3.944 7.473 3.944 14.116v22.21c0 4.083 1.141 6.124 3.425 6.124.83 0 1.557-.19 2.179-.571a12.738 12.738 0 0 0 1.661-1.194l.519-.622 2.076 2.283zM534.764 334.272c-1.314 1.73-3.027 3.079-5.137 4.048-2.111.969-4.481 1.453-7.11 1.453-3.667 0-6.556-.952-8.666-2.854-2.111-1.903-3.166-4.896-3.166-8.978 0-1.315.018-2.612.052-3.892.035-1.28.052-2.924.052-4.93v-23.975h-8.614v-4.567l9.237-1.142 2.594-14.115h6.332l-.519 14.323h13.907v5.501h-14.115v31.551c0 2.699.502 4.654 1.505 5.865 1.003 1.21 2.404 1.816 4.203 1.816 2.076 0 4.394-.969 6.954-2.906l2.491 2.802zM568.392 309.155c2.491 0 4.151-.519 4.982-1.557.83-1.038 1.245-2.318 1.245-3.84 0-1.453-.294-2.854-.882-4.203a12.007 12.007 0 0 0-2.387-3.581 11.661 11.661 0 0 0-3.529-2.491c-1.349-.623-2.82-.934-4.411-.934-1.453 0-2.958.294-4.515.882-1.557.588-2.975 1.557-4.255 2.906-1.28 1.35-2.387 3.079-3.321 5.19-.935 2.11-1.54 4.653-1.817 7.628h18.89zm-19.097 4.463c.138 6.435 1.729 11.382 4.774 14.842 3.044 3.46 7.058 5.189 12.039 5.189 3.322 0 6.089-.692 8.304-2.075 2.214-1.384 4.255-3.183 6.123-5.397l2.491 1.972c-1.799 3.736-4.376 6.694-7.732 8.873-3.356 2.18-7.421 3.27-12.195 3.27-3.529 0-6.712-.588-9.549-1.765-2.837-1.176-5.259-2.888-7.265-5.137-2.007-2.249-3.564-4.965-4.671-8.148-1.107-3.182-1.66-6.746-1.66-10.69 0-3.944.622-7.559 1.868-10.846 1.245-3.286 2.958-6.106 5.137-8.459a23.516 23.516 0 0 1 7.629-5.5c2.906-1.315 5.985-1.972 9.237-1.972 2.699 0 5.241.449 7.629 1.349 2.387.899 4.445 2.214 6.175 3.944 1.73 1.73 3.096 3.84 4.1 6.331 1.003 2.491 1.505 5.293 1.505 8.407a22.9 22.9 0 0 1-.208 3.217 21.291 21.291 0 0 1-.519 2.595h-33.212zM624.438 289.435c.277-2.767.605-5.258.986-7.472.38-2.215.847-4.204 1.401-5.968.553-1.765 1.245-3.356 2.076-4.775a21.547 21.547 0 0 1 2.906-3.892c2.214-2.421 4.601-4.082 7.161-4.982 2.56-.899 5.017-1.349 7.369-1.349 2.491 0 4.653.415 6.487 1.246 1.834.83 3.027 2.248 3.581 4.255-.139 1.384-.761 2.526-1.869 3.425-1.107.9-2.594 1.349-4.462 1.349a8.662 8.662 0 0 1-3.737-.83c-1.176-.554-2.422-1.349-3.736-2.387l-2.595-2.076c-1.384 1.038-2.56 2.422-3.529 4.152-1.107 1.799-2.006 4.255-2.698 7.369-.692 3.113-.969 7.161-.831 12.143h14.219v5.501h-14.011v21.795a644.622 644.622 0 0 0 .208 16.503l9.237 1.557v3.736h-26.674v-3.736l8.199-1.453a657.082 657.082 0 0 0 .208-16.607v-21.795h-8.511v-4.567l8.615-1.142zM669.69 300.956c1.799-4.152 4.03-7.386 6.694-9.704 2.664-2.318 5.414-3.477 8.251-3.477 1.522 0 2.993.398 4.411 1.193 1.419.796 2.301 2.093 2.647 3.892 0 1.73-.588 3.097-1.765 4.1-1.176 1.003-2.663 1.505-4.462 1.505-2.145 0-4.117-.865-5.916-2.595l-.727-.726a22.642 22.642 0 0 0-5.397 5.656c-1.453 2.18-2.664 4.826-3.633 7.94v8.199c0 2.284.018 4.948.052 7.992.035 3.045.087 5.881.156 8.511l8.511 1.557v3.736h-25.117v-3.736l7.473-1.35c.069-2.629.121-5.483.155-8.562.035-3.079.052-5.795.052-8.148v-5.293c0-2.837-.034-5.189-.104-7.058-.069-1.868-.138-3.84-.207-5.915l-8.199-.935v-3.632l14.426-6.331 1.557 1.038 1.142 12.143zM720.235 292.549c-4.567 0-8.061 1.851-10.483 5.553-2.422 3.701-3.632 9.081-3.632 16.139 0 6.988 1.21 12.299 3.632 15.931 2.422 3.633 5.916 5.449 10.483 5.449 4.497 0 7.957-1.816 10.379-5.449 2.421-3.632 3.632-8.943 3.632-15.931 0-7.058-1.211-12.438-3.632-16.139-2.422-3.702-5.882-5.553-10.379-5.553zm0-4.774c2.975 0 5.898.571 8.77 1.712 2.871 1.142 5.414 2.837 7.628 5.086 2.215 2.249 4.014 5.016 5.397 8.303 1.384 3.287 2.076 7.075 2.076 11.365s-.674 8.061-2.024 11.313c-1.349 3.252-3.148 5.968-5.397 8.147a22.63 22.63 0 0 1-7.68 4.93c-2.872 1.107-5.795 1.661-8.77 1.661-3.045 0-6.003-.554-8.874-1.661a22.101 22.101 0 0 1-7.629-4.93c-2.214-2.179-3.995-4.895-5.345-8.147-1.349-3.252-2.024-7.023-2.024-11.313 0-4.29.675-8.078 2.024-11.365 1.35-3.287 3.149-6.054 5.397-8.303 2.249-2.249 4.792-3.944 7.629-5.086a23.43 23.43 0 0 1 8.822-1.712zM808.559 334.999v3.736H784.48v-3.736l7.68-1.453c.07-2.561.122-5.363.156-8.407.035-3.045.052-5.778.052-8.2v-9.133c0-4.705-.657-7.992-1.972-9.86-1.315-1.868-3.494-2.802-6.539-2.802-2.421 0-4.757.519-7.005 1.557-2.249 1.037-4.688 2.698-7.318 4.981v15.257c0 2.284.018 4.965.052 8.044.035 3.079.087 5.933.156 8.563l7.265 1.453v3.736h-24.079v-3.736l7.681-1.453c.069-2.63.121-5.467.155-8.511.035-3.045.052-5.743.052-8.096v-5.293c0-2.837-.034-5.189-.104-7.058-.069-1.868-.138-3.84-.207-5.915l-8.199-.935v-3.632l14.426-6.331 1.557 1.038.83 8.406c2.56-2.836 5.484-5.12 8.77-6.85 3.287-1.729 6.591-2.594 9.912-2.594 4.498 0 7.836 1.487 10.016 4.463 2.179 2.975 3.269 7.888 3.269 14.738v9.963c0 2.422.018 5.138.052 8.148.035 3.01.087 5.829.156 8.459l7.265 1.453zM844.678 334.272c-1.315 1.73-3.028 3.079-5.138 4.048-2.11.969-4.48 1.453-7.11 1.453-3.667 0-6.556-.952-8.666-2.854-2.11-1.903-3.165-4.896-3.165-8.978 0-1.315.017-2.612.051-3.892.035-1.28.052-2.924.052-4.93v-23.975h-8.614v-4.567l9.237-1.142 2.595-14.115h6.331l-.519 14.323h13.908v5.501h-14.116v31.551c0 2.699.502 4.654 1.505 5.865 1.004 1.21 2.405 1.816 4.204 1.816 2.076 0 4.394-.969 6.954-2.906l2.491 2.802zM878.305 309.155c2.491 0 4.152-.519 4.982-1.557.83-1.038 1.245-2.318 1.245-3.84 0-1.453-.294-2.854-.882-4.203a12.007 12.007 0 0 0-2.387-3.581 11.636 11.636 0 0 0-3.529-2.491c-1.349-.623-2.819-.934-4.411-.934-1.453 0-2.958.294-4.515.882-1.556.588-2.975 1.557-4.255 2.906-1.28 1.35-2.387 3.079-3.321 5.19-.934 2.11-1.54 4.653-1.816 7.628h18.889zm-19.097 4.463c.138 6.435 1.73 11.382 4.774 14.842 3.045 3.46 7.058 5.189 12.04 5.189 3.321 0 6.089-.692 8.303-2.075 2.214-1.384 4.255-3.183 6.123-5.397l2.491 1.972c-1.799 3.736-4.376 6.694-7.732 8.873-3.356 2.18-7.421 3.27-12.195 3.27-3.529 0-6.712-.588-9.549-1.765-2.837-1.176-5.258-2.888-7.265-5.137-2.006-2.249-3.563-4.965-4.67-8.148-1.107-3.182-1.661-6.746-1.661-10.69 0-3.944.623-7.559 1.868-10.846 1.246-3.286 2.958-6.106 5.138-8.459a23.501 23.501 0 0 1 7.628-5.5c2.906-1.315 5.985-1.972 9.237-1.972 2.699 0 5.242.449 7.629 1.349 2.387.899 4.446 2.214 6.175 3.944 1.73 1.73 3.097 3.84 4.1 6.331 1.003 2.491 1.505 5.293 1.505 8.407a22.75 22.75 0 0 1-.208 3.217 21.291 21.291 0 0 1-.519 2.595h-33.212zM957.807 334.999v3.736h-24.079v-3.736l7.681-1.453c.069-2.561.121-5.363.155-8.407.035-3.045.052-5.778.052-8.2v-9.133c0-4.705-.657-7.992-1.972-9.86-1.314-1.868-3.494-2.802-6.538-2.802-2.422 0-4.757.519-7.006 1.557-2.249 1.037-4.688 2.698-7.317 4.981v15.257c0 2.284.017 4.965.052 8.044.034 3.079.086 5.933.155 8.563l7.266 1.453v3.736h-24.079v-3.736l7.68-1.453c.069-2.63.121-5.467.156-8.511.034-3.045.052-5.743.052-8.096v-5.293c0-2.837-.035-5.189-.104-7.058-.069-1.868-.139-3.84-.208-5.915l-8.199-.935v-3.632l14.426-6.331 1.557 1.038.831 8.406c2.56-2.836 5.483-5.12 8.77-6.85 3.286-1.729 6.59-2.594 9.912-2.594 4.497 0 7.836 1.487 10.015 4.463 2.18 2.975 3.27 7.888 3.27 14.738v9.963c0 2.422.017 5.138.051 8.148.035 3.01.087 5.829.156 8.459l7.265 1.453zM1000.98 299.088c-2.352-2.007-4.462-3.408-6.331-4.204-1.868-.795-3.667-1.193-5.397-1.193-1.937 0-3.771.415-5.5 1.245-1.73.83-3.253 2.093-4.567 3.788-1.315 1.696-2.353 3.823-3.114 6.383-.761 2.561-1.142 5.605-1.142 9.134 0 3.459.364 6.452 1.09 8.978.727 2.525 1.73 4.618 3.01 6.279 1.28 1.66 2.785 2.889 4.515 3.684 1.73.796 3.633 1.194 5.708 1.194 2.215 0 4.238-.467 6.072-1.401 1.834-.934 3.719-2.439 5.656-4.515v-29.372zm17.229 35.911v3.736l-16.191 1.038-.726-6.954c-1.799 2.422-3.84 4.273-6.124 5.553-2.283 1.28-5.085 1.92-8.407 1.92-3.182 0-6.071-.623-8.666-1.868-2.595-1.246-4.826-3.01-6.694-5.294-1.869-2.283-3.304-4.999-4.308-8.147-1.003-3.148-1.504-6.625-1.504-10.431 0-3.944.553-7.559 1.66-10.846 1.107-3.286 2.647-6.106 4.619-8.459 1.972-2.352 4.307-4.186 7.005-5.5 2.699-1.315 5.64-1.972 8.823-1.972 2.49 0 4.843.501 7.057 1.505 2.214 1.003 4.394 2.75 6.539 5.241v-22.107l-8.822-1.038v-3.633l16.295-4.67 1.453.83-.415 14.738v55.008l8.406 1.35zM1084.02 299.088c-2.353-2.007-4.463-3.408-6.332-4.204-1.868-.795-3.667-1.193-5.397-1.193-1.937 0-3.771.415-5.5 1.245-1.73.83-3.252 2.093-4.567 3.788-1.315 1.696-2.353 3.823-3.114 6.383-.761 2.561-1.141 5.605-1.141 9.134 0 3.459.363 6.452 1.089 8.978.727 2.525 1.73 4.618 3.01 6.279 1.28 1.66 2.785 2.889 4.515 3.684 1.73.796 3.633 1.194 5.708 1.194 2.215 0 4.238-.467 6.072-1.401 1.834-.934 3.719-2.439 5.657-4.515v-29.372zm17.228 35.911v3.736l-16.191 1.038-.726-6.954c-1.799 2.422-3.84 4.273-6.124 5.553-2.283 1.28-5.085 1.92-8.407 1.92-3.182 0-6.071-.623-8.666-1.868-2.595-1.246-4.826-3.01-6.694-5.294-1.868-2.283-3.304-4.999-4.308-8.147-1.003-3.148-1.504-6.625-1.504-10.431 0-3.944.553-7.559 1.66-10.846 1.107-3.286 2.647-6.106 4.619-8.459 1.972-2.352 4.307-4.186 7.006-5.5 2.698-1.315 5.639-1.972 8.822-1.972 2.49 0 4.843.501 7.057 1.505 2.214 1.003 4.394 2.75 6.539 5.241v-22.107l-8.822-1.038v-3.633l16.295-4.67 1.453.83-.415 14.738v55.008l8.406 1.35zM1136.12 309.155c2.491 0 4.152-.519 4.982-1.557.831-1.038 1.246-2.318 1.246-3.84 0-1.453-.294-2.854-.882-4.203a12.01 12.01 0 0 0-2.388-3.581 11.644 11.644 0 0 0-3.528-2.491c-1.35-.623-2.82-.934-4.411-.934-1.453 0-2.958.294-4.515.882-1.557.588-2.975 1.557-4.256 2.906-1.28 1.35-2.387 3.079-3.321 5.19-.934 2.11-1.539 4.653-1.816 7.628h18.889zm-19.097 4.463c.139 6.435 1.73 11.382 4.775 14.842 3.044 3.46 7.057 5.189 12.039 5.189 3.321 0 6.089-.692 8.303-2.075 2.214-1.384 4.256-3.183 6.124-5.397l2.491 1.972c-1.799 3.736-4.377 6.694-7.733 8.873-3.355 2.18-7.42 3.27-12.195 3.27-3.529 0-6.711-.588-9.548-1.765-2.837-1.176-5.259-2.888-7.266-5.137-2.006-2.249-3.563-4.965-4.67-8.148-1.107-3.182-1.661-6.746-1.661-10.69 0-3.944.623-7.559 1.869-10.846 1.245-3.286 2.958-6.106 5.137-8.459a23.505 23.505 0 0 1 7.629-5.5c2.906-1.315 5.985-1.972 9.237-1.972 2.698 0 5.241.449 7.628 1.349 2.387.899 4.446 2.214 6.176 3.944 1.73 1.73 3.096 3.84 4.099 6.331 1.004 2.491 1.505 5.293 1.505 8.407 0 1.176-.069 2.249-.207 3.217a21.679 21.679 0 0 1-.519 2.595h-33.213zM1206.28 293.898l-5.605 1.142-17.021 44.733h-4.359l-18.786-45.044-5.709-.831v-4.255h25.117v4.255l-9.133 1.142 12.662 33.42 11.625-33.316-8.407-1.246v-4.255h19.616v4.255zM1238.45 309.155c2.491 0 4.152-.519 4.982-1.557.83-1.038 1.246-2.318 1.246-3.84 0-1.453-.294-2.854-.883-4.203a11.988 11.988 0 0 0-2.387-3.581 11.636 11.636 0 0 0-3.529-2.491c-1.349-.623-2.819-.934-4.411-.934-1.453 0-2.958.294-4.514.882-1.557.588-2.976 1.557-4.256 2.906-1.28 1.35-2.387 3.079-3.321 5.19-.934 2.11-1.54 4.653-1.816 7.628h18.889zm-19.097 4.463c.138 6.435 1.73 11.382 4.774 14.842 3.045 3.46 7.058 5.189 12.04 5.189 3.321 0 6.089-.692 8.303-2.075 2.214-1.384 4.255-3.183 6.124-5.397l2.49 1.972c-1.799 3.736-4.376 6.694-7.732 8.873-3.356 2.18-7.421 3.27-12.195 3.27-3.529 0-6.712-.588-9.549-1.765-2.836-1.176-5.258-2.888-7.265-5.137-2.006-2.249-3.563-4.965-4.67-8.148-1.107-3.182-1.661-6.746-1.661-10.69 0-3.944.623-7.559 1.868-10.846 1.246-3.286 2.958-6.106 5.138-8.459a23.501 23.501 0 0 1 7.628-5.5c2.906-1.315 5.985-1.972 9.238-1.972 2.698 0 5.241.449 7.628 1.349 2.387.899 4.446 2.214 6.175 3.944 1.73 1.73 3.097 3.84 4.1 6.331 1.003 2.491 1.505 5.293 1.505 8.407a22.75 22.75 0 0 1-.208 3.217 21.494 21.494 0 0 1-.518 2.595h-33.213zM1285.26 334.999v3.736h-25.532v-3.736l8.199-1.453c.069-2.837.121-5.622.156-8.355.035-2.734.052-5.484.052-8.252v-44.525l-8.511-1.038v-3.633l16.191-4.67 1.453.83-.415 14.738v38.298a656.497 656.497 0 0 0 .208 16.607l8.199 1.453zM1316.4 292.549c-4.567 0-8.061 1.851-10.483 5.553-2.422 3.701-3.633 9.081-3.633 16.139 0 6.988 1.211 12.299 3.633 15.931 2.422 3.633 5.916 5.449 10.483 5.449 4.497 0 7.957-1.816 10.379-5.449 2.421-3.632 3.632-8.943 3.632-15.931 0-7.058-1.211-12.438-3.632-16.139-2.422-3.702-5.882-5.553-10.379-5.553zm0-4.774c2.975 0 5.898.571 8.77 1.712 2.871 1.142 5.414 2.837 7.628 5.086 2.214 2.249 4.013 5.016 5.397 8.303 1.384 3.287 2.076 7.075 2.076 11.365s-.675 8.061-2.024 11.313c-1.349 3.252-3.148 5.968-5.397 8.147a22.64 22.64 0 0 1-7.68 4.93c-2.872 1.107-5.795 1.661-8.77 1.661-3.045 0-6.003-.554-8.874-1.661a22.092 22.092 0 0 1-7.629-4.93c-2.214-2.179-3.996-4.895-5.345-8.147-1.349-3.252-2.024-7.023-2.024-11.313 0-4.29.675-8.078 2.024-11.365 1.349-3.287 3.148-6.054 5.397-8.303 2.249-2.249 4.792-3.944 7.629-5.086a23.426 23.426 0 0 1 8.822-1.712zM1364.76 329.083c3.806 3.528 7.646 5.293 11.521 5.293 1.937 0 3.753-.415 5.449-1.246 1.695-.83 3.183-2.075 4.463-3.736 1.28-1.661 2.283-3.736 3.009-6.227.727-2.491 1.09-5.397 1.09-8.719 0-6.711-1.211-11.849-3.632-15.412-2.422-3.564-5.536-5.345-9.341-5.345-1.592 0-3.425.398-5.501 1.193-2.076.796-4.428 2.301-7.058 4.515v29.684zm-.623-33.524c4.775-5.19 9.999-7.784 15.673-7.784 2.767 0 5.362.588 7.784 1.764 2.421 1.176 4.515 2.889 6.279 5.138 1.764 2.248 3.166 4.964 4.203 8.147 1.038 3.183 1.557 6.781 1.557 10.794 0 4.013-.536 7.663-1.608 10.95-1.073 3.286-2.561 6.089-4.463 8.407-1.903 2.318-4.169 4.117-6.799 5.397-2.629 1.28-5.466 1.92-8.51 1.92-2.422 0-4.775-.485-7.058-1.453-2.283-.969-4.532-2.733-6.746-5.293v8.095c0 2.699.017 5.449.052 8.251.034 2.803.086 5.588.155 8.355l9.445 1.557v3.633h-26.674v-3.633l8.304-1.453a698.845 698.845 0 0 0 .207-16.71v-29.995c0-2.837-.034-5.189-.104-7.058-.069-1.868-.138-3.84-.207-5.915l-8.096-.935v-3.632l14.427-6.331 1.557 1.038.622 6.746zM1437.62 309.155c2.491 0 4.151-.519 4.982-1.557.83-1.038 1.245-2.318 1.245-3.84 0-1.453-.294-2.854-.882-4.203a12.007 12.007 0 0 0-2.387-3.581 11.649 11.649 0 0 0-3.529-2.491c-1.349-.623-2.819-.934-4.411-.934-1.453 0-2.958.294-4.515.882-1.557.588-2.975 1.557-4.255 2.906-1.28 1.35-2.387 3.079-3.321 5.19-.934 2.11-1.54 4.653-1.817 7.628h18.89zm-19.097 4.463c.138 6.435 1.73 11.382 4.774 14.842 3.045 3.46 7.058 5.189 12.04 5.189 3.321 0 6.089-.692 8.303-2.075 2.214-1.384 4.255-3.183 6.123-5.397l2.491 1.972c-1.799 3.736-4.376 6.694-7.732 8.873-3.356 2.18-7.421 3.27-12.195 3.27-3.529 0-6.712-.588-9.549-1.765-2.837-1.176-5.258-2.888-7.265-5.137-2.007-2.249-3.563-4.965-4.671-8.148-1.107-3.182-1.66-6.746-1.66-10.69 0-3.944.623-7.559 1.868-10.846 1.245-3.286 2.958-6.106 5.138-8.459a23.501 23.501 0 0 1 7.628-5.5c2.906-1.315 5.985-1.972 9.237-1.972 2.699 0 5.242.449 7.629 1.349 2.387.899 4.445 2.214 6.175 3.944 1.73 1.73 3.097 3.84 4.1 6.331 1.003 2.491 1.505 5.293 1.505 8.407a22.75 22.75 0 0 1-.208 3.217 21.291 21.291 0 0 1-.519 2.595h-33.212zM1478 300.956c1.799-4.152 4.03-7.386 6.694-9.704 2.664-2.318 5.414-3.477 8.251-3.477 1.523 0 2.993.398 4.411 1.193 1.419.796 2.301 2.093 2.647 3.892 0 1.73-.588 3.097-1.764 4.1-1.177 1.003-2.664 1.505-4.463 1.505-2.145 0-4.117-.865-5.916-2.595l-.727-.726a22.642 22.642 0 0 0-5.397 5.656c-1.453 2.18-2.664 4.826-3.632 7.94v8.199c0 2.284.017 4.948.051 7.992.035 3.045.087 5.881.156 8.511l8.511 1.557v3.736h-25.117v-3.736l7.473-1.35c.069-2.629.121-5.483.155-8.562.035-3.079.052-5.795.052-8.148v-5.293c0-2.837-.034-5.189-.103-7.058-.07-1.868-.139-3.84-.208-5.915l-8.199-.935v-3.632l14.426-6.331 1.557 1.038 1.142 12.143z" fill-rule="nonzero"/>
</svg>
