<svg viewBox="0 0 612 612">
    <path d="M106.673 157.722c17.053 3.589 29.369 10.578 42.066 23.8 11.556 12.089 18.756 25.878 21.786 41.367 2.463 13.033 2.463 153.189 0 166.411-6.441 34.378-35.809 61.2-72.189 65.922-7.579.945-32.969 1.889-56.082 1.889H0V154.889h46.988c33.35 0 50.403.755 59.689 2.833h-.004zM54.948 306v96.711l19.516-.755c16.864-.567 20.464-1.323 28.042-5.667 14.779-8.689 14.968-9.256 14.968-91.422 0-80.089 0-80.089-13.831-89.156-6.822-4.533-9.663-5.1-28.231-5.855l-20.464-.567V306zm299.37-123.722v27.389h-96.636v68h58.741v54.777h-58.741l.378 34.378.567 34.567 47.94.567 47.743.377v54.778h-55.892c-62.148 0-71.812-1.133-81.664-9.822-13.831-12.089-13.071-4.345-13.642-137.133-.378-82.734.189-121.834 1.515-127.123 2.652-9.822 13.831-21.911 23.687-25.311 5.87-2.078 20.649-2.644 66.882-2.833h59.114v27.389h.008zm119.555 78.766c14.023 53.834 25.768 96.712 26.15 95.389.567-1.322 12.504-46.844 26.713-101.433l25.96-99.167 29.558-.566c22.357-.378 29.746.189 29.746 1.889s-65.56 250.088-69.349 262.555c-2.652 8.689-16.86 26.445-24.82 31.167-10.041 5.666-24.82 6.611-33.917 1.889-8.144-4.156-18.945-16.623-24.442-28.334-3.407-7.177-59.114-211.555-71.997-264.444l-1.329-5.1h29.561c28.987 0 29.746 0 31.261 4.155.755 2.456 12.882 48.356 26.905 102z"/>
</svg>